<svg xmlns="http://www.w3.org/2000/svg" xmlns:xlink="http://www.w3.org/1999/xlink" id="Layer_1" x="0" y="0" version="1.1" viewBox="0 0 444 16" xml:space="preserve" style="enable-background:new 0 0 444 16"><style type="text/css">.st0,.st1{fill-rule:evenodd;clip-rule:evenodd;fill:#a1b2b8}.st1{fill:#cee3e9}</style><path d="M0,8h196v1H0V8z M248,8h196v1H248V8z" class="st0"/><g><path d="M3,0L3,0c1.7,0,3,1.3,3,3v10c0,1.7-1.3,3-3,3l0,0c-1.7,0-3-1.3-3-3V3C0,1.3,1.3,0,3,0z" class="st1" transform="translate(212)"/><path d="M17,0L17,0c1.7,0,3,1.3,3,3v10c0,1.7-1.3,3-3,3l0,0c-1.7,0-3-1.3-3-3V3C14,1.3,15.3,0,17,0z" class="st1" transform="translate(212)"/></g></svg>