<?xml version="1.0" encoding="utf-8"?>
<!-- Generator: Adobe Illustrator 24.0.0, SVG Export Plug-In . SVG Version: 6.00 Build 0)  -->
<svg version="1.1" id="Layer_1" xmlns="http://www.w3.org/2000/svg" xmlns:xlink="http://www.w3.org/1999/xlink" x="0px" y="0px"
	 viewBox="0 0 444 16" style="enable-background:new 0 0 444 16;" xml:space="preserve">
<style type="text/css">
	.st0{fill-rule:evenodd;clip-rule:evenodd;fill:#89989E;}
	.st1{fill-rule:evenodd;clip-rule:evenodd;fill:#CEE3E9;}
</style>
<path class="st0" d="M0,8h196v1H0V8z M248,8h196v1H248V8z"/>
<g transform="translate(212)">
	<path class="st1" d="M3,0L3,0c1.7,0,3,1.3,3,3v10c0,1.7-1.3,3-3,3l0,0c-1.7,0-3-1.3-3-3V3C0,1.3,1.3,0,3,0z"/>
	<path class="st1" d="M17,0L17,0c1.7,0,3,1.3,3,3v10c0,1.7-1.3,3-3,3l0,0c-1.7,0-3-1.3-3-3V3C14,1.3,15.3,0,17,0z"/>
</g>
</svg>
